<mxfile host="app.diagrams.net" modified="2021-04-20T07:50:06.063Z" agent="5.0 (Windows)" etag="Z4vT7QYkO9CKp51zzsAK" version="14.5.8" type="github">
  <diagram id="WA4Fim6JRcxzr3q3d7Ef" name="Page-1">
    <mxGraphModel dx="1185" dy="636" grid="1" gridSize="10" guides="1" tooltips="1" connect="1" arrows="1" fold="1" page="1" pageScale="1" pageWidth="827" pageHeight="1169" math="0" shadow="0">
      <root>
        <mxCell id="0" />
        <mxCell id="1" parent="0" />
        <mxCell id="ku-fVEmPsRu_MNtJxgvG-22" value="" style="edgeStyle=orthogonalEdgeStyle;curved=1;orthogonalLoop=1;jettySize=auto;html=1;strokeColor=#000000;" edge="1" parent="1" source="ku-fVEmPsRu_MNtJxgvG-1" target="ku-fVEmPsRu_MNtJxgvG-2">
          <mxGeometry relative="1" as="geometry" />
        </mxCell>
        <mxCell id="ku-fVEmPsRu_MNtJxgvG-1" value="&lt;div&gt;bs_setpoint&lt;/div&gt;" style="ellipse;whiteSpace=wrap;html=1;" vertex="1" parent="1">
          <mxGeometry x="60" y="337.5" width="160" height="85" as="geometry" />
        </mxCell>
        <mxCell id="ku-fVEmPsRu_MNtJxgvG-21" style="edgeStyle=orthogonalEdgeStyle;curved=1;orthogonalLoop=1;jettySize=auto;html=1;exitX=1;exitY=0.5;exitDx=0;exitDy=0;strokeColor=#000000;" edge="1" parent="1" source="ku-fVEmPsRu_MNtJxgvG-2" target="ku-fVEmPsRu_MNtJxgvG-3">
          <mxGeometry relative="1" as="geometry" />
        </mxCell>
        <mxCell id="ku-fVEmPsRu_MNtJxgvG-2" value="&lt;div&gt;/setpoint_bs_use(n)&lt;/div&gt;" style="rounded=0;whiteSpace=wrap;html=1;" vertex="1" parent="1">
          <mxGeometry x="330" y="350" width="140" height="60" as="geometry" />
        </mxCell>
        <mxCell id="ku-fVEmPsRu_MNtJxgvG-23" style="edgeStyle=orthogonalEdgeStyle;curved=1;orthogonalLoop=1;jettySize=auto;html=1;exitX=0.5;exitY=1;exitDx=0;exitDy=0;entryX=1;entryY=0.5;entryDx=0;entryDy=0;strokeColor=#000000;" edge="1" parent="1" source="ku-fVEmPsRu_MNtJxgvG-3" target="ku-fVEmPsRu_MNtJxgvG-4">
          <mxGeometry relative="1" as="geometry" />
        </mxCell>
        <mxCell id="ku-fVEmPsRu_MNtJxgvG-3" value="&lt;div&gt;setpoint_transfer_use(n)&lt;/div&gt;" style="ellipse;whiteSpace=wrap;html=1;" vertex="1" parent="1">
          <mxGeometry x="580" y="337.5" width="160" height="85" as="geometry" />
        </mxCell>
        <mxCell id="ku-fVEmPsRu_MNtJxgvG-25" value="" style="edgeStyle=orthogonalEdgeStyle;curved=1;orthogonalLoop=1;jettySize=auto;html=1;strokeColor=#000000;" edge="1" parent="1" source="ku-fVEmPsRu_MNtJxgvG-4" target="ku-fVEmPsRu_MNtJxgvG-24">
          <mxGeometry relative="1" as="geometry" />
        </mxCell>
        <mxCell id="ku-fVEmPsRu_MNtJxgvG-4" value="&lt;div&gt;/setpoint_use(n)_drone(01-10)&lt;/div&gt;" style="rounded=0;whiteSpace=wrap;html=1;" vertex="1" parent="1">
          <mxGeometry x="305" y="470" width="190" height="60" as="geometry" />
        </mxCell>
        <mxCell id="ku-fVEmPsRu_MNtJxgvG-27" style="edgeStyle=orthogonalEdgeStyle;curved=1;orthogonalLoop=1;jettySize=auto;html=1;exitX=0.5;exitY=1;exitDx=0;exitDy=0;entryX=0;entryY=0.5;entryDx=0;entryDy=0;strokeColor=#000000;" edge="1" parent="1" source="ku-fVEmPsRu_MNtJxgvG-24" target="ku-fVEmPsRu_MNtJxgvG-26">
          <mxGeometry relative="1" as="geometry" />
        </mxCell>
        <mxCell id="ku-fVEmPsRu_MNtJxgvG-24" value="&lt;div&gt;offboard_control_&lt;/div&gt;use(n)_drone(01-10)" style="ellipse;whiteSpace=wrap;html=1;" vertex="1" parent="1">
          <mxGeometry x="60" y="458.75" width="160" height="82.5" as="geometry" />
        </mxCell>
        <mxCell id="ku-fVEmPsRu_MNtJxgvG-29" value="" style="edgeStyle=orthogonalEdgeStyle;curved=1;orthogonalLoop=1;jettySize=auto;html=1;strokeColor=#000000;" edge="1" parent="1" source="ku-fVEmPsRu_MNtJxgvG-26" target="ku-fVEmPsRu_MNtJxgvG-28">
          <mxGeometry relative="1" as="geometry" />
        </mxCell>
        <mxCell id="ku-fVEmPsRu_MNtJxgvG-26" value="&lt;div&gt;/OffboardControlMode_&lt;/div&gt;&lt;div&gt;PubSubTopic_use(n)_drone(01-10)&lt;/div&gt;" style="rounded=0;whiteSpace=wrap;html=1;" vertex="1" parent="1">
          <mxGeometry x="297.5" y="580" width="205" height="60" as="geometry" />
        </mxCell>
        <mxCell id="ku-fVEmPsRu_MNtJxgvG-28" value="MicroRTPS / PX4" style="ellipse;whiteSpace=wrap;html=1;" vertex="1" parent="1">
          <mxGeometry x="580" y="568.75" width="160" height="82.5" as="geometry" />
        </mxCell>
        <mxCell id="ku-fVEmPsRu_MNtJxgvG-30" value="&lt;font style=&quot;font-size: 23px&quot;&gt;&lt;b&gt;Drone to setpoint ROS2 node/topic scheme&lt;/b&gt;&lt;/font&gt;" style="text;html=1;strokeColor=none;fillColor=none;align=center;verticalAlign=middle;whiteSpace=wrap;rounded=0;" vertex="1" parent="1">
          <mxGeometry x="242" y="250" width="342.5" height="40" as="geometry" />
        </mxCell>
      </root>
    </mxGraphModel>
  </diagram>
</mxfile>
